# xmcd
#
# Track frame offsets: 
#        150
#        21961
#        47114
#        69383
#        84830
#        103629
#        120932
#        137604
#        155505
#        173620
#        192401
#        210658
#        231691
#
# Disc length: 3195 seconds
#
# Revision: 1
# Processed by: cddbd v1.5.2PL0 Copyright (c) Steve Scherf et al.
# Submitted via: ExactAudioCopyFreeDBPlugin 1.0
#
DISCID=aa0c790d
DTITLE=岸ミツアキ - Feel Of Joy
DYEAR=2007
DGENRE=Jazz
TTITLE0=It's A Wonderful World
TTITLE1=You'd Be So Nice To Come Home To
TTITLE2=Nancy (With The Laughing Face)
TTITLE3=Sweet Georgia Brown
TTITLE4=Feel Of Joy
TTITLE5=Laughing On The Outside
TTITLE6=Let Yourself Go
TTITLE7=Indian Summer
TTITLE8=Denzil's Best
TTITLE9=Orange Colored Sky
TTITLE10=Can't Help Lovin' Dat Man
TTITLE11=They All Laughed
TTITLE12=Dream
EXTD=YEAR: 2007
EXTT0=
EXTT1=
EXTT2=
EXTT3=
EXTT4=
EXTT5=
EXTT6=
EXTT7=
EXTT8=
EXTT9=
EXTT10=
EXTT11=
EXTT12=
PLAYORDER=
